<?xml version="1.0" encoding="UTF-8"?>
<!DOCTYPE svg PUBLIC "-//W3C//DTD SVG 1.1//EN" "http://www.w3.org/Graphics/SVG/1.1/DTD/svg11.dtd">
<svg xmlns="http://www.w3.org/2000/svg" version="1.1" width="32px" height="32px" style="shape-rendering:geometricPrecision; text-rendering:geometricPrecision; image-rendering:optimizeQuality; fill-rule:evenodd; clip-rule:evenodd" xmlns:xlink="http://www.w3.org/1999/xlink">
<g><path style="opacity:0.94" fill="#c56958" d="M 16.5,-0.5 C 20.8333,-0.5 25.1667,-0.5 29.5,-0.5C 29.9321,0.709515 30.5987,1.70951 31.5,2.5C 31.5,3.5 31.5,4.5 31.5,5.5C 25.7336,3.55392 20.4003,4.22059 15.5,7.5C 15.4013,4.76275 15.7347,2.09609 16.5,-0.5 Z"/></g>
<g><path style="opacity:0.906" fill="#66bb93" d="M -0.5,12.5 C -0.5,9.5 -0.5,6.5 -0.5,3.5C 3.3874,1.11307 7.3874,0.946406 11.5,3C 12.0434,6.47315 13.0434,9.80649 14.5,13C 9.41575,13.7777 4.41575,13.6111 -0.5,12.5 Z"/></g>
<g><path style="opacity:1" fill="#a1d1bb" d="M 2.5,4.5 C 4.92397,4.19244 7.25731,4.52577 9.5,5.5C 8.33333,5.83333 7.16667,6.16667 6,6.5C 4.31887,6.39174 3.1522,5.72507 2.5,4.5 Z"/></g>
<g><path style="opacity:0.943" fill="#f2bba4" d="M 31.5,5.5 C 31.5,7.83333 31.5,10.1667 31.5,12.5C 26.9454,17.2888 22.1121,17.6222 17,13.5C 15.872,11.6547 15.372,9.65472 15.5,7.5C 20.4003,4.22059 25.7336,3.55392 31.5,5.5 Z"/></g>
<g><path style="opacity:0.951" fill="#404a4b" d="M 15.5,23.5 C 12.622,22.63 9.95534,21.2967 7.5,19.5C 5.04466,21.2967 2.37799,22.63 -0.5,23.5C -0.5,22.1667 -0.5,20.8333 -0.5,19.5C 2.59938,15.7597 6.59938,14.593 11.5,16C 14.3589,17.6909 15.6923,20.1909 15.5,23.5 Z"/></g>
<g><path style="opacity:0.816" fill="#f2c52e" d="M 31.5,18.5 C 31.5,21.8333 31.5,25.1667 31.5,28.5C 26.5511,29.7786 21.5511,29.7786 16.5,28.5C 17.9843,25.3831 18.9843,22.0498 19.5,18.5C 23.5303,17.1726 27.5303,17.1726 31.5,18.5 Z"/></g>
<g><path style="opacity:0.997" fill="#edb9a3" d="M 15.5,23.5 C 15.5,24.1667 15.5,24.8333 15.5,25.5C 14.2993,27.9095 12.6326,29.9095 10.5,31.5C 8.5,31.5 6.5,31.5 4.5,31.5C 2.5,30.1667 0.833333,28.5 -0.5,26.5C -0.5,25.5 -0.5,24.5 -0.5,23.5C 2.37799,22.63 5.04466,21.2967 7.5,19.5C 9.95534,21.2967 12.622,22.63 15.5,23.5 Z"/></g>
<g><path style="opacity:1" fill="#f1d787" d="M 21.5,20.5 C 23.8333,20.5 26.1667,20.5 28.5,20.5C 28.5,22.5 28.5,24.5 28.5,26.5C 25.1426,26.7704 22.8092,26.1037 21.5,24.5C 21.5,23.1667 21.5,21.8333 21.5,20.5 Z"/></g>
<g><path style="opacity:0.673" fill="#424d4f" d="M -0.5,26.5 C 0.833333,28.5 2.5,30.1667 4.5,31.5C 3.16667,31.5 1.83333,31.5 0.5,31.5C 0.5,30.8333 0.166667,30.5 -0.5,30.5C -0.5,29.1667 -0.5,27.8333 -0.5,26.5 Z"/></g>
<g><path style="opacity:0.69" fill="#434e4e" d="M 15.5,25.5 C 15.6747,27.6208 15.3414,29.6208 14.5,31.5C 13.1667,31.5 11.8333,31.5 10.5,31.5C 12.6326,29.9095 14.2993,27.9095 15.5,25.5 Z"/></g>
</svg>
